<svg xmlns="http://www.w3.org/2000/svg" viewBox="0 0 268 285" color="#e46c44">
    <path
        d="M 7.506 10.991 C 6.294 12.951, 8.057 13.778, 15.879 14.922 C 25.743 16.364, 30.129 17.601, 31.164 19.232 C 31.607 19.929, 31.976 76.582, 31.985 145.128 C 31.998 251.056, 31.789 269.930, 30.593 270.923 C 29.819 271.566, 24.434 272.880, 18.627 273.844 C 12.820 274.809, 7.784 275.883, 7.434 276.232 C 4.956 278.711, 10.407 279, 59.559 279 C 102.862 279, 111 278.780, 111 277.607 C 111 275.772, 109.750 275.361, 99.848 273.941 C 91.450 272.736, 88.122 271.633, 86.765 269.600 C 86.361 268.995, 86.033 248.025, 86.036 223 L 86.042 177.500 102.086 159.231 C 110.911 149.184, 118.518 141.202, 118.992 141.495 C 120.085 142.171, 122.700 147.010, 152.769 204 C 160.459 218.575, 170.463 237.475, 175 246 C 179.537 254.525, 183.859 263.217, 184.604 265.316 C 185.871 268.887, 185.812 269.279, 183.687 271.403 C 181.912 273.179, 179.795 273.825, 173.980 274.365 C 169.890 274.745, 166.146 275.454, 165.659 275.941 C 162.864 278.736, 167.138 279, 215.132 279 C 260.554 279, 264.123 278.876, 263.822 277.315 C 263.616 276.243, 261.759 275.187, 258.719 274.411 C 252.298 272.773, 247.851 269.175, 243.697 262.258 C 239.224 254.810, 156 99.375, 156 98.469 C 156 96.939, 190.542 58.715, 201.714 47.883 C 220.152 30.006, 237.019 17.541, 246.369 14.883 C 248.091 14.393, 250.175 13.544, 251 12.996 C 254.854 10.436, 248.598 10.023, 209.513 10.259 C 173.279 10.477, 169.497 10.655, 169.210 12.149 C 168.960 13.448, 170.017 13.946, 174.196 14.497 C 192.941 16.971, 200.228 30.503, 191.985 47.532 C 188.900 53.904, 189.672 53, 103.611 150.981 L 86.500 170.461 86.244 95.515 C 86.003 25.165, 86.095 20.461, 87.744 18.819 C 88.870 17.698, 93.267 16.427, 100 15.277 C 107.842 13.938, 110.500 13.107, 110.500 11.992 C 110.500 10.692, 103.913 10.467, 59.315 10.241 C 25.684 10.071, 7.915 10.328, 7.506 10.991 M 215.829 76.486 C 216.284 86.873, 213.461 92.843, 203.046 103.512 C 194.214 112.561, 192.394 116.732, 193.322 125.795 C 194.326 135.591, 201.208 145.435, 210.449 150.291 C 216.346 153.391, 230.786 153.411, 236.551 150.328 C 242.422 147.189, 248.951 140.282, 251.710 134.292 C 256.356 124.204, 253.686 109.498, 245.696 101.168 C 239.829 95.051, 239.422 95.228, 239.851 103.714 C 240.485 116.273, 235.703 122.992, 227.107 121.620 C 222.749 120.925, 219.197 117.565, 218.415 113.399 C 217.955 110.948, 218.514 108.645, 220.621 104.309 C 222.987 99.439, 223.448 97.204, 223.472 90.485 C 223.497 83.403, 223.115 81.687, 220.187 75.735 C 218.365 72.031, 216.565 68.999, 216.187 68.998 C 215.809 68.996, 215.648 72.366, 215.829 76.486"
        stroke="none" fill="currentColor" fill-rule="evenodd" />
</svg>